# xmcd
#
# Track frame offsets: 
#        150
#        21857
#        39352
#        57202
#        72830
#        87897
#        103102
#        117600
#        134537
#        153095
#        165255
#        184380
#
# Disc length: 2746 seconds
#
# Revision: 24
# Processed by: cddbd v1.5.2PL0 Copyright (c) Steve Scherf et al.
# Submitted via: ExactAudioCopy v0.99pb4
#
DISCID=9b0ab80c
DTITLE=Chris Isaak - Wicked Game
DYEAR=1991
DGENRE=Blues
TTITLE0=Wicked Game
TTITLE1=You Owe Me Some Kind Of Love
TTITLE2=Blue Spanish Sky
TTITLE3=Heart Shaped World
TTITLE4=Heart Full Of Soul
TTITLE5=Funeral In The Rain
TTITLE6=Blue Hotel
TTITLE7=Dancin'
TTITLE8=Nothing's Changed
TTITLE9=Voodoo
TTITLE10=Lie To Me
TTITLE11=Wicked Game (Instrumental)
EXTD=
EXTT0=
EXTT1=
EXTT2=
EXTT3=
EXTT4=
EXTT5=
EXTT6=
EXTT7=
EXTT8=
EXTT9=
EXTT10=
EXTT11=
PLAYORDER=
